# xmcd
#
# Track frame offsets:
#	150
#	30952
#	57223
#	88406
#	99998
#	138967
#	154877
#	193297
#	217686
#	240265
#	259370
#	291138
#
# Disc length: 4385 seconds
#
# Revision: 1
# Processed by: cddbd v1.5.2PL0 Copyright (c) Steve Scherf et al.
# Submitted via: audiograbber 1.83.01
#
DISCID=a2111f0c
DTITLE=Christine Jones - Jonesmobile 33
DYEAR=2014
DGENRE=
TTITLE0=Baby Please Don't Go
TTITLE1=Dream
TTITLE2=Dance of the Jones
TTITLE3=Oh Lord
TTITLE4=Ode to Miles - All Blues
TTITLE5=My Cat
TTITLE6=Catch the Cat
TTITLE7=LSD Cooking
TTITLE8=Orfeu Negro
TTITLE9=El Invierno
TTITLE10=Leaving Blues
TTITLE11=Rockin' and Arrolin'
EXTD=
EXTT0=
EXTT1=
EXTT2=
EXTT3=
EXTT4=
EXTT5=
EXTT6=
EXTT7=
EXTT8=
EXTT9=
EXTT10=
EXTT11=
PLAYORDER=
